<svg width="366" height="366" viewBox="0 0 366 366" fill="none" xmlns="http://www.w3.org/2000/svg">
<path d="M289.613 30.5H137.403C120.46 30.5 106.75 44.2098 106.75 61.1525V147.117L35.0445 217.907C32.896 220.032 31.4272 222.747 30.8245 225.709C30.2219 228.67 30.5125 231.743 31.6595 234.539C32.8065 237.334 34.7582 239.726 37.2669 241.411C39.7756 243.095 42.7282 243.996 45.75 244V320.25C45.75 324.295 47.3567 328.173 50.2166 331.033C53.0765 333.893 56.9554 335.5 61 335.5H305C309.045 335.5 312.923 333.893 315.783 331.033C318.643 328.173 320.25 324.295 320.25 320.25V61.1372C320.25 44.2097 306.555 30.5 289.613 30.5ZM166.56 230.443V305H76.25V220.088L121.802 175.116L166.56 220.912V230.443V230.443ZM198.25 137.25H167.75V106.75H198.25V137.25ZM259.25 259.25H228.75V228.75H259.25V259.25ZM259.25 198.25H228.75V167.75H259.25V198.25ZM259.25 137.25H228.75V106.75H259.25V137.25Z" fill="black"/>
<path d="M106.75 228.75H137.25V259.25H106.75V228.75Z" fill="black"/>
</svg>
