<svg width="32" height="32" viewBox="0 0 32 32" fill="none" xmlns="http://www.w3.org/2000/svg">
<path d="M17.332 2.66666C9.96933 2.66666 4 8.63599 4 15.9987C4 22.652 8.87467 28.1667 15.2493 29.1707V19.8533H11.8627V15.9987H15.2493V13.0613C15.2493 9.71732 17.24 7.87332 20.284 7.87332C21.7427 7.87332 23.2707 8.13332 23.2707 8.13332V11.412H21.5853C19.932 11.412 19.4147 12.4413 19.4147 13.496V15.996H23.1093L22.5187 19.8507H19.4147V29.168C25.7893 28.1693 30.664 22.6533 30.664 15.9987C30.664 8.63599 24.6947 2.66666 17.332 2.66666V2.66666Z" fill="#1770E6"/>
</svg>
