<svg width="32" height="32" viewBox="0 0 32 32" fill="none" xmlns="http://www.w3.org/2000/svg">
<path d="M6.71909 24.7687L6.33559 27.45C6.31189 27.6164 6.32724 27.7861 6.38044 27.9455C6.43363 28.105 6.5232 28.2499 6.64207 28.3688C6.76094 28.4876 6.90583 28.5772 7.0653 28.6304C7.22476 28.6836 7.39442 28.6989 7.56084 28.6752L10.2421 28.2917C10.6483 28.2343 11.6667 25.5 11.6667 25.5C11.6667 25.5 12.178 25.9387 12.3871 26.0048C12.8334 26.1457 13.2678 25.708 13.4141 25.2638L13.8333 23.3442C13.8333 23.3442 14.4584 23.6605 14.6848 23.7071C14.973 23.7667 15.2525 23.589 15.4508 23.3897C15.5699 23.2709 15.6593 23.1258 15.7118 22.9661L16 21.1775C16 21.1775 16.7313 21.3801 16.9815 21.4093C17.2664 21.4418 17.5438 21.2967 17.7474 21.0919L18.9803 19.8602C20.0238 20.1983 21.1405 20.2419 22.2073 19.9862C23.274 19.7304 24.2495 19.1852 25.0263 18.4107C26.1418 17.2923 26.7683 15.7772 26.7683 14.1976C26.7683 12.618 26.1418 11.1029 25.0263 9.9845C23.908 8.869 22.3928 8.24257 20.8133 8.24257C19.2337 8.24257 17.7186 8.869 16.6002 9.9845C15.8254 10.7612 15.28 11.7367 15.0243 12.8035C14.7685 13.8703 14.8123 14.987 15.1507 16.0306L7.02459 24.1556C6.85872 24.3213 6.75146 24.5366 6.71909 24.7687V24.7687ZM23.046 11.9648C23.637 12.5576 23.9689 13.3605 23.9689 14.1976C23.9689 15.0346 23.637 15.8376 23.046 16.4303L18.5805 11.9648C19.1733 11.3738 19.9762 11.0419 20.8133 11.0419C21.6503 11.0419 22.4532 11.3738 23.046 11.9648Z" fill="#A2A2A2"/>
</svg>
