<svg width="122" height="122" viewBox="0 0 122 122" fill="none" xmlns="http://www.w3.org/2000/svg">
<path d="M99.9638 85.456C98.5562 88.7372 96.8171 91.8662 94.7737 94.794C92.0439 98.693 89.8022 101.387 88.084 102.887C85.4153 105.337 82.5483 106.598 79.483 106.669C77.287 106.669 74.6335 106.043 71.5429 104.773C68.442 103.507 65.5954 102.887 62.9876 102.887C60.2579 102.887 57.3299 103.507 54.1934 104.773C51.0621 106.043 48.5306 106.709 46.5939 106.77C43.6608 106.897 40.7277 105.606 37.8048 102.887C35.9392 101.26 33.6059 98.4642 30.805 94.5094C27.8059 90.2953 25.3404 85.3899 23.4088 79.8135C21.3399 73.7795 20.3029 67.9439 20.3029 62.2912C20.3029 55.8201 21.7008 50.2335 24.5017 45.5569C26.6202 41.884 29.6488 38.8186 33.2959 36.656C36.8921 34.4989 40.9975 33.3375 45.1909 33.2908C47.5292 33.2908 50.5944 34.0126 54.3917 35.436C58.1889 36.8593 60.6289 37.5811 61.6914 37.5811C62.4945 37.5811 65.1938 36.7322 69.7891 35.0496C74.1252 33.489 77.7852 32.8435 80.7844 33.0976C88.9177 33.7534 95.0228 36.9559 99.0844 42.7305C91.8152 47.1378 88.2213 53.3039 88.2924 61.2186C88.3534 67.3847 90.5952 72.5138 94.9872 76.5855C96.9289 78.4437 99.1944 79.9305 101.672 80.9725C101.133 82.533 100.564 84.0225 99.9638 85.456V85.456ZM81.3232 12.0984C81.3232 16.9275 79.5542 21.4415 76.0416 25.615C71.7919 30.5763 66.6578 33.4484 61.0915 32.996C61.0187 32.3887 60.9831 31.7776 60.9848 31.166C60.9848 26.5249 62.9978 21.5635 66.5917 17.502C68.381 15.4483 70.6584 13.7352 73.4186 12.3729C76.1738 11.0309 78.7764 10.2887 81.2266 10.1616C81.2927 10.8123 81.3232 11.4579 81.3232 12.0984V12.0984Z" fill="black"/>
</svg>
