<svg width="122" height="122" viewBox="0 0 122 122" fill="none" xmlns="http://www.w3.org/2000/svg">
<path d="M103.105 52.643H60.7763V70.1856H85.1357C82.8685 81.3334 73.3779 87.7384 60.7763 87.7384C57.2502 87.7444 53.7576 87.0542 50.4988 85.7075C47.2399 84.3607 44.2791 82.3839 41.786 79.8903C39.2928 77.3967 37.3165 74.4354 35.9704 71.1763C34.6242 67.9173 33.9347 64.4245 33.9414 60.8984C33.9354 57.3727 34.6254 53.8805 35.9718 50.622C37.3183 47.3635 39.2947 44.4028 41.7878 41.9098C44.2808 39.4167 47.2415 37.4403 50.4999 36.0939C53.7584 34.7474 57.2506 34.0574 60.7763 34.0635C67.1763 34.0635 72.9611 36.3357 77.5005 40.0516L90.7172 26.84C82.6652 19.82 72.3409 15.489 60.7763 15.489C54.8075 15.4715 48.8942 16.6343 43.3763 18.9104C37.8585 21.1865 32.8451 24.5311 28.6245 28.7517C24.4039 32.9723 21.0594 37.9856 18.7833 43.5035C16.5072 49.0213 15.3444 54.9347 15.3618 60.9035C15.3437 66.8725 16.506 72.7861 18.7819 78.3043C21.0578 83.8224 24.4023 88.836 28.623 93.0568C32.8438 97.2775 37.8574 100.622 43.3756 102.898C48.8937 105.174 54.8073 106.336 60.7763 106.318C83.4836 106.318 104.132 89.8022 104.132 60.9035C104.132 58.2195 103.72 55.327 103.105 52.643Z" fill="black"/>
</svg>
