<svg width="32" height="32" viewBox="0 0 32 32" fill="none" xmlns="http://www.w3.org/2000/svg">
<path d="M16 2.66667C8.77202 2.66667 2.66669 8.77201 2.66669 16C2.66669 23.228 8.77202 29.3333 16 29.3333C23.228 29.3333 29.3334 23.228 29.3334 16C29.3334 8.77201 23.228 2.66667 16 2.66667ZM16 9.33334C18.3027 9.33334 20 11.0293 20 13.3333C20 15.6373 18.3027 17.3333 16 17.3333C13.6987 17.3333 12 15.6373 12 13.3333C12 11.0293 13.6987 9.33334 16 9.33334ZM9.19202 22.3627C10.388 20.6027 12.3827 19.4293 14.6667 19.4293H17.3334C19.6187 19.4293 21.612 20.6027 22.808 22.3627C21.104 24.1867 18.6867 25.3333 16 25.3333C13.3134 25.3333 10.896 24.1867 9.19202 22.3627Z" fill="#B6B6B6"/>
</svg>
